<svg width="38" height="48" viewBox="0 0 38 48" fill="none" xmlns="http://www.w3.org/2000/svg">
<path fill-rule="evenodd" clip-rule="evenodd" d="M16.5708 23.185L0.372692 10.5319C-0.0493589 10.2011 -0.123508 9.59081 0.204441 9.16877C0.535244 8.74672 1.14554 8.67257 1.56757 9.00052L16.0487 20.3132L13.6389 15.5765C13.3937 15.1003 13.5848 14.5157 14.0638 14.2732C14.5401 14.028 15.1247 14.2191 15.3671 14.6953L17.9679 19.7999L18.0021 1.08675C18.0021 0.550635 18.4384 0.117188 18.9745 0.117188C19.5107 0.120039 19.9441 0.553504 19.9441 1.0896L19.907 20.0422L22.6304 14.6952C22.8728 14.219 23.4574 14.0279 23.9366 14.2732C24.4156 14.5156 24.6039 15.1002 24.3615 15.5764L21.9489 20.3132L36.43 9.00045C36.852 8.6725 37.4623 8.74664 37.7931 9.1687C38.1239 9.59076 38.0498 10.2011 37.6249 10.5318L21.3698 23.2309L35.0069 23.3564C35.5431 23.3621 35.9737 23.8012 35.9708 24.3374C35.9651 24.8735 35.5259 25.3041 34.9898 25.2984L22.2798 25.1815L37.6252 37.1673C38.0501 37.4981 38.1243 38.1084 37.7935 38.5304C37.4627 38.9525 36.8524 39.0295 36.4303 38.6987L21.7529 27.2319L24.3622 32.3536C24.6046 32.8327 24.4164 33.4173 23.9373 33.6597C23.4582 33.9022 22.8736 33.7139 22.6312 33.2348L19.8935 27.8622L19.8593 46.8461C19.8593 47.3823 19.537 47.8157 19.0009 47.8129C18.4648 47.8129 17.9172 47.3766 17.9172 46.8405L17.9515 28.1646L15.3706 33.2349C15.1254 33.714 14.5408 33.9022 14.0645 33.6598C13.5854 33.4174 13.3943 32.8328 13.6396 32.3537L16.2461 27.232L1.56859 38.6988C1.14654 39.0296 0.53624 38.9526 0.205459 38.5305C-0.12249 38.1085 -0.0483469 37.4982 0.373712 37.1674L15.7987 25.1188L1.62281 24.9876C1.08668 24.9819 0.656091 24.5456 0.661786 24.0095C0.667489 23.4734 1.10666 23.0428 1.64281 23.0456L16.5708 23.185Z" fill="black"/>
</svg>
