<svg width="52" height="43" viewBox="0 0 52 43" fill="none" xmlns="http://www.w3.org/2000/svg">
<path d="M49.875 21.255H47.4907L45.3241 16.3416C45.0716 15.7676 44.4725 15.4279 43.8512 15.5014C43.2288 15.5761 42.7283 16.048 42.6178 16.6653L40.7219 27.2508L37.7722 8.8324C37.6628 8.14897 37.0774 7.64281 36.3854 7.63312C36.378 7.63312 36.3717 7.63312 36.3649 7.63312C35.6814 7.63312 35.0926 8.11933 34.9649 8.7925L32.1993 23.3794L29.9763 14.9417C29.8064 14.2981 29.2279 13.8604 28.5484 13.8809C27.8833 13.9043 27.3229 14.3853 27.1987 15.0391L24.1862 30.9028L21.4269 1.84591C21.359 1.13113 20.7691 0.578233 20.0515 0.556003C19.3116 0.540613 18.7108 1.05019 18.6002 1.75984L15.0514 24.4105L13.5364 10.9916C13.4577 10.2967 12.8871 9.76207 12.1895 9.72787C11.4798 9.69994 10.8716 10.1719 10.7268 10.8548L8.52321 21.2219L7.62945 17.6195C7.48239 17.0284 6.97623 16.5958 6.36918 16.5434C5.75757 16.4904 5.18871 16.8295 4.94247 17.387L3.23475 21.2538H1.425C0.63783 21.2538 0 21.8917 0 22.6788C0 23.466 0.63783 24.1038 1.425 24.1038H4.16271C4.72701 24.1038 5.2383 23.771 5.4663 23.2545L5.86587 22.3488L7.24698 27.9126C7.40658 28.5561 7.99824 29.0252 8.65431 28.9939C9.31836 28.9825 9.88608 28.5145 10.024 27.8658L11.689 20.0329L13.4064 35.2399C13.4868 35.949 14.079 36.4894 14.7921 36.5048C15.4892 36.5207 16.1202 36.0054 16.2302 35.3004L19.6616 13.3998L22.2973 41.1531C22.3645 41.8593 22.9414 42.4088 23.6499 42.4419C23.6721 42.443 23.6943 42.4436 23.7166 42.4436C24.3971 42.4436 24.9877 41.9597 25.1159 41.2842L28.8249 21.7526L31.0496 30.1949C31.2195 30.8384 31.8185 31.2733 32.4775 31.2556C33.1426 31.2323 33.703 30.7512 33.8272 30.0968L36.2474 17.3305L39.2365 35.9958C39.3465 36.682 39.9359 37.1888 40.6302 37.195C40.6347 37.195 40.6393 37.195 40.6433 37.195C41.333 37.195 41.9241 36.7008 42.0461 36.0214L44.5997 21.7617L45.2574 23.2534C45.4849 23.7704 45.9967 24.1038 46.561 24.1038H49.875C50.6622 24.1038 51.3 23.466 51.3 22.6788C51.3 21.8917 50.6622 21.255 49.875 21.255Z" fill="black"/>
</svg>
